<svg xmlns="http://www.w3.org/2000/svg" viewBox="0 0 64 64">
  <defs>
    <linearGradient id="fg" x1="0" y1="0" x2="0.5" y2="1">
      <stop offset="0%" stop-color="#00ff88"/>
      <stop offset="100%" stop-color="#00e5ff"/>
    </linearGradient>
    <filter id="g">
      <feGaussianBlur stdDeviation="1.5" result="b"/>
      <feMerge><feMergeNode in="b"/><feMergeNode in="SourceGraphic"/></feMerge>
    </filter>
  </defs>
  <rect width="64" height="64" rx="12" fill="#0a0a1a"/>
  <!-- Subtle grid -->
  <g stroke="#1a1a3a" stroke-width="0.5" opacity="0.5">
    <line x1="12" y1="6" x2="12" y2="58"/><line x1="22" y1="6" x2="22" y2="58"/>
    <line x1="32" y1="6" x2="32" y2="58"/><line x1="42" y1="6" x2="42" y2="58"/>
    <line x1="52" y1="6" x2="52" y2="58"/>
    <line x1="6" y1="12" x2="58" y2="12"/><line x1="6" y1="22" x2="58" y2="22"/>
    <line x1="6" y1="32" x2="58" y2="32"/><line x1="6" y1="42" x2="58" y2="42"/>
    <line x1="6" y1="52" x2="58" y2="52"/>
  </g>
  <!-- Start cell -->
  <rect x="7" y="17" width="9" height="9" rx="2" fill="#0a2a4a" opacity="0.8"/>
  <!-- T path glow -->
  <path d="M12 22 L12 12 L22 12 L32 12 L42 12 L52 12 L52 22 L42 22 L32 22 L32 32 L32 42 L32 52"
        fill="none" stroke="url(#fg)" stroke-width="4" stroke-linecap="round"
        stroke-linejoin="round" opacity="0.3" filter="url(#g)"/>
  <!-- T path main -->
  <path d="M12 22 L12 12 L22 12 L32 12 L42 12 L52 12 L52 22 L42 22 L32 22 L32 32 L32 42 L32 52"
        fill="none" stroke="url(#fg)" stroke-width="2.5" stroke-linecap="round"
        stroke-linejoin="round" filter="url(#g)"/>
</svg>
